<svg width="33" height="11" viewBox="0 0 33 11" fill="none" xmlns="http://www.w3.org/2000/svg">
<path d="M10.015 3.845C10.035 5.055 9.65 6.085 8.86 6.935C8.07 7.785 7.115 8.2 5.995 8.18C5.045 8.18 4.345 7.91 3.895 7.37L3.31 10.7H0.73L2.53 0.5H4.885L4.765 1.16C5.265 0.6 5.945 0.32 6.805 0.32C7.725 0.32 8.49 0.655 9.1 1.325C9.71 1.995 10.015 2.835 10.015 3.845ZM7.375 4.1C7.375 3.66 7.245 3.305 6.985 3.035C6.735 2.765 6.405 2.63 5.995 2.63C5.535 2.63 5.155 2.79 4.855 3.11C4.555 3.43 4.405 3.835 4.405 4.325C4.405 4.785 4.535 5.16 4.795 5.45C5.055 5.74 5.39 5.885 5.8 5.885C6.25 5.885 6.625 5.715 6.925 5.375C7.225 5.035 7.375 4.61 7.375 4.1ZM17.0643 0.5H19.6443L18.3693 8H15.9543L16.0593 7.385C15.5493 7.915 14.8843 8.18 14.0643 8.18C13.1443 8.18 12.3793 7.845 11.7693 7.175C11.1593 6.495 10.8543 5.645 10.8543 4.625C10.8343 3.435 11.2143 2.415 11.9943 1.565C12.7843 0.715 13.7393 0.3 14.8593 0.32C15.8093 0.32 16.5093 0.585 16.9593 1.115L17.0643 0.5ZM16.4643 4.205C16.4643 3.735 16.3343 3.355 16.0743 3.065C15.8143 2.765 15.4743 2.615 15.0543 2.615C14.6143 2.615 14.2443 2.78 13.9443 3.11C13.6543 3.44 13.5093 3.86 13.5093 4.37C13.5093 4.83 13.6343 5.2 13.8843 5.48C14.1343 5.75 14.4643 5.885 14.8743 5.885C15.3343 5.885 15.7143 5.725 16.0143 5.405C16.3143 5.085 16.4643 4.685 16.4643 4.205ZM26.0629 0.5H28.6429L27.4129 7.445C27.2229 8.505 26.7679 9.34 26.0479 9.95C25.3179 10.57 24.4329 10.88 23.3929 10.88C22.6629 10.88 21.9629 10.73 21.2929 10.43C20.6229 10.14 20.0629 9.73 19.6129 9.2L21.1129 7.475C21.5829 7.885 21.9879 8.17 22.3279 8.33C22.6679 8.49 23.0229 8.57 23.3929 8.57C24.2129 8.57 24.6979 8.17 24.8479 7.37L24.8929 7.085C24.3929 7.435 23.8129 7.61 23.1529 7.61C22.4029 7.61 21.7829 7.375 21.2929 6.905C20.8029 6.425 20.5579 5.825 20.5579 5.105C20.5579 4.895 20.5829 4.63 20.6329 4.31L21.3079 0.5H23.8879L23.2279 4.22C23.2079 4.38 23.1979 4.475 23.1979 4.505C23.1979 4.775 23.2929 5 23.4829 5.18C23.6829 5.35 23.9279 5.435 24.2179 5.435C24.4979 5.435 24.7429 5.35 24.9529 5.18C25.1729 5 25.3079 4.765 25.3579 4.475L26.0629 0.5ZM29.3131 7.7C28.9931 7.38 28.8331 6.98 28.8331 6.5C28.8331 6.02 28.9931 5.62 29.3131 5.3C29.6331 4.98 30.0431 4.82 30.5431 4.82C31.0231 4.82 31.4181 4.98 31.7281 5.3C32.0481 5.62 32.2081 6.02 32.2081 6.5C32.2081 6.98 32.0481 7.38 31.7281 7.7C31.4181 8.02 31.0231 8.18 30.5431 8.18C30.0431 8.18 29.6331 8.02 29.3131 7.7Z" fill="#0045FF"/>
</svg>
